# Blender v2.77 (sub 0) OBJ File: ''
# www.blender.org
mtllib blade.mtl
o Cylinder.001
v -0.050000 -0.396901 -0.951057
v 0.050000 -0.396901 -0.951057
v -0.050000 -0.675669 -0.809017
v 0.050000 -0.675669 -0.809017
v -0.050000 -0.896901 -0.587785
v 0.050000 -0.896901 -0.587785
v -0.050000 -1.038940 -0.309017
v 0.050000 -1.038940 -0.309017
v -0.050000 -1.087884 0.000000
v 0.050000 -1.087884 0.000000
v -0.050000 -1.038940 0.309017
v 0.050000 -1.038940 0.309017
v -0.050000 -0.896901 0.587785
v 0.050000 -0.896901 0.587785
v -0.050000 -0.675669 0.809017
v 0.050000 -0.675669 0.809017
v -0.050000 -0.396901 0.951057
v 0.050000 -0.396901 0.951057
vn 0.0000 -0.4540 -0.8910
vn 0.0000 -0.7071 -0.7071
vn 0.0000 -0.8910 -0.4540
vn 0.0000 -0.9877 -0.1564
vn 0.0000 -0.9877 0.1564
vn 0.0000 -0.8910 0.4540
vn 0.0000 -0.7071 0.7071
vn 0.0000 -0.4540 0.8910
vn 0.0000 1.0000 -0.0000
vn -1.0000 0.0000 -0.0000
vn 1.0000 -0.0000 0.0000
usemtl None
s off
f 1//1 2//1 4//1 3//1
f 3//2 4//2 6//2 5//2
f 5//3 6//3 8//3 7//3
f 7//4 8//4 10//4 9//4
f 9//5 10//5 12//5 11//5
f 11//6 12//6 14//6 13//6
f 13//7 14//7 16//7 15//7
f 15//8 16//8 18//8 17//8
f 1//9 17//9 18//9 2//9
f 1//10 3//10 5//10 7//10 9//10 11//10 13//10 15//10 17//10
f 4//11 2//11 18//11 16//11 14//11 12//11 10//11 8//11 6//11
o Cylinder
v -0.050000 -0.500000 -0.866025
v 0.050000 -0.500000 -0.866025
v -0.050000 -0.500000 0.866026
v 0.050000 -0.500000 0.866026
v -0.050000 1.000000 -0.000000
v 0.050000 1.000000 -0.000000
vn 0.0000 -1.0000 0.0000
vn 0.0000 0.5000 0.8660
vn 1.0000 -0.0000 0.0000
vn 0.0000 0.5000 -0.8660
vn -1.0000 0.0000 -0.0000
usemtl None
s off
f 19//12 20//12 22//12 21//12
f 21//13 22//13 24//13 23//13
f 22//14 20//14 24//14
f 23//15 24//15 20//15 19//15
f 19//16 21//16 23//16
